<?xml version="1.0" standalone="no"?>
<!DOCTYPE svg PUBLIC "-//W3C//DTD SVG 20010904//EN"
 "http://www.w3.org/TR/2001/REC-SVG-20010904/DTD/svg10.dtd">
<svg version="1.0" xmlns="http://www.w3.org/2000/svg"
 width="632.000000pt" height="531.000000pt" viewBox="0 0 632.000000 531.000000"
 preserveAspectRatio="xMidYMid meet">

<g transform="translate(0.000000,531.000000) scale(0.100000,-0.100000)"
fill="#000000" stroke="none">
<path d="M1612 5184 c-34 -23 -28 -61 33 -216 31 -78 54 -143 51 -145 -2 -2
-27 10 -57 27 -218 129 -469 223 -670 250 -69 10 -84 9 -105 -5 -47 -30 -33
-55 84 -153 126 -106 416 -380 420 -399 4 -17 2 -17 -158 7 -168 26 -466 38
-498 21 -24 -13 -30 -53 -9 -68 6 -5 44 -22 82 -38 96 -38 425 -197 425 -204
0 -3 -48 -16 -108 -29 -140 -30 -394 -115 -557 -187 -142 -62 -155 -70 -155
-94 1 -43 11 -45 145 -26 99 14 170 17 316 13 104 -2 194 -9 199 -14 7 -7 6
-40 -1 -94 -6 -47 -14 -175 -18 -285 -7 -188 -10 -207 -44 -327 -40 -142 -71
-315 -88 -493 -15 -151 -6 -532 16 -675 8 -58 13 -110 11 -117 -3 -6 -18 -14
-34 -17 -49 -11 -99 -61 -117 -117 -20 -58 -16 -123 11 -204 26 -75 125 -169
237 -223 58 -29 85 -47 80 -55 -4 -7 -48 -61 -98 -122 -446 -538 -772 -983
-795 -1087 -18 -79 -12 -102 27 -106 27 -3 55 14 180 104 492 356 682 520 936
811 135 153 181 193 222 193 81 0 172 -98 363 -390 162 -246 208 -306 362
-465 74 -77 159 -166 187 -197 43 -49 57 -58 85 -58 l34 0 -91 97 c-49 53
-132 140 -184 192 -116 117 -181 200 -289 363 l-84 126 36 56 c20 31 38 56 41
56 3 0 40 -17 83 -39 178 -89 361 -148 546 -176 54 -8 101 -17 104 -19 10 -11
-53 -243 -98 -360 -17 -42 -30 -88 -30 -100 0 -30 30 -56 63 -56 35 0 55 32
98 159 l33 97 60 -14 c79 -18 187 -11 248 15 67 30 125 94 144 160 15 52 17
54 47 51 29 -3 32 -6 35 -43 4 -49 -13 -206 -33 -295 -8 -36 -20 -91 -27 -123
-17 -81 -4 -92 122 -106 169 -19 372 18 398 72 9 19 10 32 2 47 -19 36 -45 42
-107 25 -32 -9 -109 -19 -172 -22 l-114 -6 6 24 c4 13 12 54 18 92 l12 67 68
0 c135 0 223 36 217 88 -2 14 -14 33 -28 43 -23 17 -30 17 -85 4 -33 -8 -81
-15 -107 -15 l-48 0 0 48 c0 79 -5 78 206 28 104 -25 203 -46 219 -48 l30 -3
5 -193 5 -194 28 -24 c34 -29 60 -25 95 12 21 24 22 32 22 205 l0 179 78 0 77
0 148 -121 c128 -103 153 -120 179 -117 20 2 38 13 51 30 l20 27 -25 95 -25
95 41 5 c106 13 296 18 296 7 0 -15 -379 -401 -443 -452 l-49 -39 44 0 c43 0
44 0 254 212 242 245 305 330 361 485 62 175 129 273 187 273 34 0 127 -34
173 -63 68 -43 158 -133 310 -310 170 -196 274 -290 421 -378 58 -35 110 -66
114 -67 4 -2 8 43 8 99 l0 103 -57 100 c-113 200 -322 516 -556 844 -64 89
-117 166 -117 171 0 4 27 30 61 56 76 60 135 133 143 180 16 83 -40 162 -136
192 -50 15 -58 21 -54 38 24 99 31 231 31 545 0 284 -5 387 -23 580 -26 259
-51 426 -83 539 -49 175 -153 402 -255 558 l-53 83 52 30 c109 64 307 158 427
205 69 27 131 53 138 58 6 5 12 23 12 39 0 48 -45 60 -246 66 -153 4 -260 -3
-361 -24 -27 -5 -33 -3 -33 10 0 9 81 98 180 198 99 101 180 187 180 194 0 6
-9 19 -20 29 -20 18 -23 18 -78 1 -72 -23 -269 -117 -386 -184 -49 -29 -93
-52 -98 -52 -4 0 -6 10 -3 23 2 12 16 74 30 137 38 167 39 178 25 195 -7 8
-26 15 -42 15 -24 0 -48 -18 -127 -97 -85 -85 -203 -223 -228 -267 -6 -11 -41
2 -163 63 -399 197 -835 284 -1275 252 -332 -24 -616 -97 -948 -243 l-137 -60
-63 58 c-164 153 -369 314 -401 314 -12 0 -32 -7 -44 -16z m513 -929 c22 -11
72 -51 111 -90 105 -104 434 -485 522 -603 43 -57 142 -192 222 -300 l146
-196 -114 -170 c-231 -344 -295 -425 -415 -521 -125 -100 -281 -174 -557 -263
-157 -51 -273 -76 -470 -101 -85 -11 -242 -32 -348 -46 -106 -14 -205 -25
-220 -23 -26 3 -27 7 -39 83 -61 423 -26 904 93 1270 96 293 216 513 364 663
137 139 275 227 450 287 119 40 185 43 255 10z m3112 -127 c154 -247 247 -486
288 -738 22 -143 54 -488 66 -732 12 -224 3 -464 -23 -646 l-11 -84 -31 6
c-17 3 -91 13 -165 21 -179 21 -251 37 -411 92 -335 114 -443 164 -567 266
-122 99 -266 292 -344 464 -22 48 -52 114 -66 145 l-27 58 67 97 c239 352 560
691 897 948 74 57 261 185 270 185 3 0 29 -37 57 -82z m-1619 -863 c102 -31
220 -170 314 -374 144 -313 254 -476 409 -608 127 -108 241 -162 581 -277 192
-65 296 -89 436 -102 72 -6 74 -7 88 -40 8 -18 14 -54 14 -80 0 -42 -5 -51
-38 -84 -97 -92 -429 -225 -892 -356 -107 -31 -233 -71 -280 -91 -232 -95
-404 -246 -496 -436 -27 -55 -31 -59 -83 -74 -32 -9 -94 -16 -146 -16 -111 -1
-105 -4 -388 187 -223 150 -362 230 -468 270 -106 40 -247 55 -764 81 -165 8
-349 20 -410 26 -252 25 -500 121 -603 233 -56 61 -74 107 -76 193 -2 122 41
155 230 178 705 82 888 118 1182 231 179 69 255 106 351 174 145 103 235 210
454 540 171 257 294 393 384 426 51 18 138 17 201 -1z m-495 -2632 c42 -5 47
-8 47 -30 0 -35 -57 -89 -111 -103 -34 -10 -60 -10 -113 -1 -39 6 -72 13 -73
15 -2 2 2 34 8 71 l13 67 90 -6 c50 -4 112 -10 139 -13z m1332 -174 c10 -31 1
-32 -25 -4 -23 25 -23 25 -2 25 12 0 23 -8 27 -21z"/>
<path d="M1602 3449 c-139 -27 -266 -137 -321 -278 -95 -240 6 -520 226 -624
64 -30 75 -32 178 -32 99 0 116 3 168 27 116 55 217 180 252 313 87 335 -186
657 -503 594z m187 -58 c169 -52 281 -217 281 -412 0 -133 -43 -233 -139 -322
-142 -132 -343 -136 -491 -9 -117 99 -173 279 -136 435 21 87 47 138 104 199
106 114 242 152 381 109z"/>
<path d="M1626 3266 c-62 -23 -108 -68 -146 -141 -32 -62 -35 -75 -35 -154 1
-131 50 -223 146 -276 66 -36 137 -38 203 -6 55 27 90 67 125 141 22 47 26 68
25 145 -1 102 -19 156 -75 219 -62 71 -164 101 -243 72z"/>
<path d="M4915 3452 c-305 -106 -397 -561 -165 -815 28 -30 76 -68 112 -87 55
-30 74 -35 153 -38 74 -3 100 0 148 18 342 129 385 676 69 885 -81 54 -222 70
-317 37z m237 -52 c24 -12 27 -19 33 -89 3 -42 7 -91 10 -109 l4 -34 -28 39
c-77 107 -196 118 -287 28 -118 -118 -117 -362 1 -481 95 -94 220 -76 296 44
l29 46 0 -40 c0 -21 -3 -77 -7 -123 l-6 -84 -41 -17 c-92 -41 -207 -31 -293
23 -125 79 -193 218 -193 391 1 188 97 346 247 407 55 22 188 22 235 -1z"/>
<path d="M3973 1946 c-46 -52 -97 -142 -88 -156 11 -17 43 -11 50 10 3 11 31
52 61 91 53 68 62 99 30 99 -8 0 -32 -20 -53 -44z"/>
<path d="M3147 1963 c-12 -12 -8 -21 38 -75 25 -29 48 -63 51 -75 9 -36 54
-42 54 -7 0 41 -89 164 -119 164 -10 0 -21 -3 -24 -7z"/>
<path d="M5594 193 c-14 -14 -15 -29 -10 -82 3 -37 6 -76 6 -88 0 -18 6 -23
26 -23 l25 0 -7 81 -7 82 28 -7 c15 -4 86 -39 158 -79 130 -71 133 -72 212
-74 l80 -3 -68 24 c-37 14 -136 61 -221 105 -84 45 -165 81 -179 81 -14 0 -33
-8 -43 -17z"/>
<path d="M1099 80 c-14 -11 -52 -33 -84 -50 l-57 -30 107 0 106 0 -3 48 c-2
38 -7 47 -23 49 -11 2 -32 -6 -46 -17z"/>
</g>
</svg>
